# xmcd
#
# Track frame offsets:
#	150
#	12521
#	23818
#	36075
#	45494
#	55187
#	65715
#	73544
#	84857
#	94843
#	105390
#	120309
#
# Disc length: 1763 seconds
# Revision: 3
# Processed by: cddbd v1.5.2PL0 Copyright (c) Steve Scherf et al.
# Submitted via: dBpowerAMP V12.0
#
DISCID=9006e10c
DTITLE=Various Artist - Forgotten Country
DYEAR=2001
DGENRE=Country
TTITLE0=Lynn Anderson - Stand By Your Man
TTITLE1=Ed Bruce - King of the Road
TTITLE2=Karl Denver Trio - Mexicali Rose
TTITLE3=Dave Dudley - Six Days On the Road
TTITLE4=Mickey Gilley - Fraulein
TTITLE5=Ferlin Husky - Wings of A Dove
TTITLE6=George Jones - Jambalaya
TTITLE7=Frankie Laine - Answer Me
TTITLE8=Willie Nelson - Healing Hands of Time
TTITLE9=Johnny Preston - Cradle of Love
TTITLE10=Tex Ritter - I Dreamed of A Hillbilly Heaven
TTITLE11=Billie Jo Spears - Look What They've Done To My Song
EXTD=
EXTT0=
EXTT1=
EXTT2=
EXTT3=
EXTT4=
EXTT5=
EXTT6=
EXTT7=
EXTT8=
EXTT9=
EXTT10=
EXTT11=
PLAYORDER=
